# xmcd
#
# Track frame offsets:
#  183
#  21008
#  41000
#  61933
#  82308
#  100798
#  136518
#  154483
#  173643
#  194298
#  208060
#  231943
#
# Disc length: 3423 seconds
#
# Revision: 0
# Processed by: cddbd v1.5.2PL0 Copyright (c) Steve Scherf et al.
# Submitted via: Collectorz.com_Music_Collector 7.0
#
DISCID=9e0d5d0c
DTITLE=Diverse Artiesten - The Diamond Compact Disc Collection Vol 10
DYEAR=1988
DGENRE=General Blues
TTITLE0=Creedence Clearwater Revival , The - Suzie Q - Cleedance Clearwater Revival
TTITLE1=T.Rex - Get It On
TTITLE2=Ultravox - Vienna - Ultravox
TTITLE3=Blondie - Heart Of Glass
TTITLE4=Kinks, The - Lola - The Kinks
TTITLE5=Golden Earring, The - Twilight Zone
TTITLE6=Cocker, Joe - Feeling Allright
TTITLE7=Buoys, The - Give Up Your Guns
TTITLE8=Procol Harum - A Salty Dog
TTITLE9=Yazoo - Don't Go
TTITLE10=Numan, Gary - Are Friends Electric
TTITLE11=Depeche Mode - Just Can't Get Enough
EXTD=
EXTT0=
EXTT1=
EXTT2=
EXTT3=
EXTT4=
EXTT5=
EXTT6=
EXTT7=
EXTT8=
EXTT9=
EXTT10=
EXTT11=
PLAYORDER=
